Coordinates
version=1
nRows=10
nColumns=40
inDegrees=yes

Units are S.I. units (second, meters, Newtons, ...)
Angles are in degrees.

endheader
time	pelvis_tilt	pelvis_list	pelvis_rotation	pelvis_tx	pelvis_ty	pelvis_tz	hip_flexion_r	hip_adduction_r	hip_rotation_r	knee_angle_r	knee_angle_r_beta	ankle_angle_r	subtalar_angle_r	mtp_angle_r	hip_flexion_l	hip_adduction_l	hip_rotation_l	knee_angle_l	knee_angle_l_beta	ankle_angle_l	subtalar_angle_l	mtp_angle_l	lumbar_extension	lumbar_bending	lumbar_rotation	arm_flex_r	arm_add_r	arm_rot_r	elbow_flex_r	pro_sup_r	wrist_flex_r	wrist_dev_r	arm_flex_l	arm_add_l	arm_rot_l	elbow_flex_l	pro_sup_l	wrist_flex_l	wrist_dev_l
     10.32000000	     -5.42210339	     -3.66458138	      1.03120674	      0.98897844	      0.93244487	      0.38673971	     28.31862311	     -6.00751909	     -8.31743351	     68.00787155	     68.00787155	      5.44872104	    -16.07373240	      2.08676076	     15.63356316	     -3.22593078	     -7.10270245	     20.42362706	     20.42362706	     13.13908069	     -5.44146912	     -0.33233054	     -7.61561928	      3.85105792	      2.54740246	      9.72680980	    -11.98448331	      0.80709335	     39.84488058	     45.92236622	      0.00000000	      0.00000000	      7.55152525	    -12.15675565	     -5.92576374	     54.02259683	     46.18438965	      0.00000000	      0.00000000
     10.33278571	     -5.37772955	     -3.74972500	      0.66381284	      0.98781907	      0.93305691	      0.38684149	     29.83299217	     -5.65494573	     -7.77766987	     67.43985310	     67.43985310	      5.13128181	    -16.20721308	      2.05282212	     14.62715251	     -3.27898280	     -7.25708515	     19.63552868	     19.63552868	     13.35186509	     -5.55334567	     -0.24630016	     -7.87013788	      4.06935344	      2.90977650	      7.83072030	    -12.57083290	      0.78235624	     37.99835127	     45.98032329	      0.00000000	      0.00000000	      8.57123711	    -12.18330448	     -6.12782893	     55.18729033	     46.23329133	      0.00000000	      0.00000000
     10.34557143	     -5.29601903	     -3.69928397	      0.33090985	      0.98689386	      0.93361955	      0.38680666	     31.18073931	     -5.55603901	     -7.37881301	     66.72123086	     66.72123086	      4.89152376	    -16.05312551	      1.96093703	     13.52908908	     -3.17382878	     -7.44712726	     18.78659776	     18.78659776	     13.54101094	     -5.53162808	     -0.27348882	     -8.13826160	      4.13084748	      3.15087715	      5.99906261	    -13.05573566	      0.64064035	     35.95452189	     46.05464810	      0.00000000	      0.00000000	      9.45784807	    -12.23574149	     -6.30756859	     56.51247537	     46.28031175	      0.00000000	      0.00000000
     10.35835714	     -5.12727455	     -3.57190175	     -0.04256913	      0.98619904	      0.93430636	      0.38685882	     32.29097198	     -5.47578704	     -6.92255764	     65.75807556	     65.75807556	      4.66448709	    -15.88037505	      1.88856281	     12.24644340	     -2.96579472	     -7.68137676	     17.77158422	     17.77158422	     13.64442715	     -5.56133715	     -0.30607938	     -8.50482325	      4.05829969	      3.41987153	      4.29935985	    -13.46921363	      0.36558593	     33.62458785	     46.15131523	      0.00000000	      0.00000000	     10.24524902	    -12.32355863	     -6.50347032	     58.04549704	     46.33154997	      0.00000000	      0.00000000
     10.37114286	     -4.93528315	     -3.32244978	     -0.44586738	      0.98575013	      0.93495165	      0.38681592	     33.22325543	     -5.55057397	     -6.50197044	     64.50265304	     64.50265304	      4.29687383	    -15.67873470	      1.12516284	     10.82602843	     -2.50241021	     -7.50675809	     16.50391277	     16.50391277	     13.14093566	     -6.49332477	     -1.12529896	     -8.83195044	      3.86339657	      2.76051269	      4.53414237	    -12.99607166	     -1.74757000	     27.85243333	     46.52828100	      0.00000000	      0.00000000	      9.83949473	    -12.98322014	     -6.89078682	     61.09687773	     46.45242182	      0.00000000	      0.00000000
     10.38392857	     -4.70776153	     -3.03444912	     -0.94616987	      0.98570990	      0.93571686	      0.38695446	     33.96517289	     -5.55962600	     -6.00272848	     62.95234540	     62.95234540	      4.20148605	    -15.46509617	      1.26220990	      9.32353191	     -2.10988317	     -7.99086324	     15.27167573	     15.27167573	     13.25722046	     -6.19013737	     -0.92293547	     -9.16270956	      3.66640468	      3.11619159	      2.67472057	    -13.46529201	     -2.05665691	     26.60060041	     46.58831640	      0.00000000	      0.00000000	     10.55817336	    -12.96253554	     -7.33225050	     62.20442580	     46.51473843	      0.00000000	      0.00000000
     10.39671429	     -4.39198958	     -2.57984928	     -1.47143734	      0.98590207	      0.93647824	      0.38699139	     34.45829400	     -5.76615445	     -5.51787901	     61.07694824	     61.07694824	      3.99472804	    -15.13062090	      0.60428024	      7.60936801	     -1.37319224	     -7.84923112	     13.78415094	     13.78415094	     13.08193224	     -6.95801676	     -0.60893828	     -9.60418696	      3.28484797	      3.00235178	      1.81293207	    -13.30518590	     -4.71950813	     23.77821219	     46.92310428	      0.00000000	      0.00000000	     10.37861644	    -13.06070811	     -8.40980789	     65.00410899	     46.69365467	      0.00000000	      0.00000000
     10.40950000	     -4.14465428	     -2.21370216	     -2.05905657	      0.98626756	      0.93708660	      0.38727945	     34.86885795	     -5.81754813	     -5.11622798	     58.88095364	     58.88095364	      4.02666552	    -14.67131552	      0.67657438	      6.04773309	     -0.85130933	     -8.39365006	     12.49115893	     12.49115893	     13.19989283	     -6.62521730	     -0.25248108	     -9.90792910	      3.03463824	      3.46973870	      0.04585027	    -13.81285964	     -5.10180696	     22.71854229	     46.98823874	      0.00000000	      0.00000000	     10.97240856	    -12.95308112	     -8.76501308	     66.24021560	     46.75169471	      0.00000000	      0.00000000
     10.42228571	     -3.89991389	     -1.82809914	     -2.62281613	      0.98673627	      0.93751826	      0.38763912	     35.10418497	     -5.90178801	     -4.83530643	     56.35187197	     56.35187197	      4.11801710	    -14.08023219	      0.58031566	      4.54086823	     -0.26594193	     -8.70242759	     11.27582686	     11.27582686	     13.33768297	     -6.57835787	      0.32911828	    -10.19657110	      2.74730320	      3.87123980	     -1.66755450	    -14.16127901	     -5.60748036	     21.76213436	     47.06341046	      0.00000000	      0.00000000	     11.32173938	    -12.90265314	     -9.17800925	     67.95307888	     46.82066527	      0.00000000	      0.00000000
     10.43507143	     -3.73420262	     -1.55095182	     -3.12728689	      0.98718040	      0.93770082	      0.38814108	     35.22238523	     -5.89544412	     -4.78440678	     53.46494082	     53.46494082	      4.15182811	    -13.33090007	      0.46413705	      3.23272908	      0.18717088	     -8.90650328	     10.26266149	     10.26266149	     13.55755445	     -6.56797690	      0.91773578	    -10.36023424	      2.57037332	      4.12879209	     -3.28196458	    -14.48916121	     -6.09290346	     20.99302435	     47.13116192	      0.00000000	      0.00000000	     11.49988299	    -12.83473125	     -9.58066037	     69.76447478	     46.88808573	      0.00000000	      0.00000000
